<svg id="Capa_1" enable-background="new 0 0 512 512" height="512" viewBox="0 0 512 512" width="512" xmlns="http://www.w3.org/2000/svg"><g><path d="m494.615 415.996-26.239-101.156c-.26-1.002-.725-1.939-1.364-2.752l-117.115-148.966c-1.423-1.809-3.596-2.865-5.897-2.865s-4.474 1.056-5.897 2.865l-71.146 90.496c-2.56 3.256-1.996 7.972 1.26 10.532 3.258 2.56 7.971 1.995 10.532-1.26l57.751-73.457v43.895c-4.033.125-7.266 3.425-7.266 7.488s3.232 7.363 7.266 7.488v14.458c-4.033.125-7.266 3.425-7.266 7.488s3.232 7.363 7.266 7.488v33.498l-5.231 17.812c-9.438 32.134-27.12 61.458-51.134 84.802-.255.248-.482.515-.694.788h-70.205l24.514-94.512 24.683-31.395c2.56-3.256 1.995-7.971-1.261-10.531-3.26-2.561-7.972-1.995-10.532 1.26l-25.652 32.628c-.639.814-1.104 1.751-1.363 2.752l-25.885 99.797h-41.274c.006-.12.018-.238.018-.36v-18.974c6.599-.61 15.338-2.671 22.319-9.639 7.449-7.436 11.227-18.735 11.227-33.583 0-18.535-4.127-39.704-11.04-56.628-8.13-19.901-18.786-30.861-30.006-30.861-11.221 0-21.877 10.96-30.007 30.861-6.913 16.924-11.04 38.093-11.04 56.628 0 14.848 3.777 26.147 11.227 33.583 6.978 6.965 15.723 9.031 22.32 9.643v18.97c0 .122.012.24.018.36h-83.965c.006-.12.018-.238.018-.36v-18.974c6.599-.61 15.338-2.671 22.319-9.639 7.449-7.435 11.227-18.735 11.227-33.583 0-18.535-4.127-39.705-11.04-56.628-8.129-19.901-18.785-30.861-30.006-30.861-11.22 0-21.876 10.96-30.006 30.861-6.913 16.924-11.04 38.093-11.04 56.628 0 14.849 3.777 26.148 11.227 33.583 6.98 6.968 15.72 9.03 22.319 9.641v18.972c0 .122.012.24.018.36h-12.975c-14.115 0-25.598 11.483-25.598 25.598v45.42c0 4.142 3.357 7.5 7.5 7.5h497c4.143 0 7.5-3.358 7.5-7.5v-45.42c0-11.242-7.288-20.808-17.385-24.239zm-357.132-35.762c-3.999-.511-8.349-1.818-11.724-5.187-4.527-4.519-6.823-12.246-6.823-22.966 0-16.691 3.711-35.74 9.927-50.956 6.453-15.799 13.176-21.534 16.12-21.534 2.943 0 9.666 5.735 16.119 21.534 6.216 15.216 9.927 34.265 9.927 50.956 0 10.72-2.296 18.447-6.823 22.966-3.374 3.368-7.724 4.677-11.723 5.187v-27.938c0-4.142-3.357-7.5-7.5-7.5s-7.5 3.358-7.5 7.5zm-98.928 0c-3.999-.511-8.348-1.819-11.723-5.186-4.527-4.519-6.823-12.246-6.823-22.967 0-16.691 3.711-35.74 9.927-50.956 6.453-15.799 13.176-21.534 16.119-21.534 2.944 0 9.666 5.735 16.12 21.534 6.215 15.216 9.926 34.265 9.926 50.956 0 10.72-2.296 18.448-6.823 22.967-3.372 3.366-7.725 4.673-11.723 5.184v-27.935c0-4.142-3.357-7.5-7.5-7.5s-7.5 3.358-7.5 7.5zm312.945-102.484h.335c4.143 0 7.5-3.358 7.5-7.5s-3.357-7.5-7.5-7.5h-.335v-14.434h.335c4.143 0 7.5-3.358 7.5-7.5s-3.357-7.5-7.5-7.5h-.335v-43.883l102.75 130.693 24.516 94.512h-70.072c-24.441-23.483-42.407-53.063-51.962-85.59l-5.232-17.812zm-7.5 60.909c9.096 28.134 24.092 54.055 43.847 75.978h-87.679c19.747-21.919 34.743-47.868 43.832-75.978zm153 139.496h-482v-37.92c0-5.844 4.754-10.598 10.598-10.598h460.805c5.844 0 10.598 4.754 10.598 10.598v37.92z"/><path d="m48.892 147.041h97.117c4.143 0 7.5-3.358 7.5-7.5s-3.357-7.5-7.5-7.5h-97.117c-2.109 0-4.073-.84-5.53-2.366-1.408-1.475-2.133-3.393-2.039-5.415l.015-.3c.771-13.44 11.438-24.533 24.813-25.803 4.773-.453 9.396.278 13.732 2.178 3.776 1.656 8.186-.053 9.862-3.823 6.467-14.548 20.921-23.948 36.824-23.948 15.631 0 29.983 9.175 36.565 23.375 1.653 3.567 5.78 5.252 9.456 3.862 3.748-1.416 7.686-1.988 11.689-1.701 8.294.595 15.801 4.862 20.594 11.708 1.553 2.218 4.147 3.372 6.762 3.152h18.701c5.261 0 9.541 4.28 9.541 9.541s-4.28 9.542-9.541 9.542h-54.327c-4.143 0-7.5 3.358-7.5 7.5s3.357 7.5 7.5 7.5h54.327c13.532 0 24.541-11.009 24.541-24.542 0-4.401-1.17-8.531-3.207-12.106 5.479-9.31 8.366-19.907 8.366-30.785 0-33.505-27.259-60.764-60.764-60.764-26.277 0-49.075 16.534-57.434 40.892-4.899-1.418-10.031-2.174-15.269-2.174-19.511 0-37.431 10.307-47.35 26.752-4.702-1.178-9.612-1.556-14.486-1.091-20.684 1.964-37.181 19.108-38.37 39.866l-.025.492c-.284 6.141 1.909 11.983 6.175 16.451 4.252 4.452 10.221 7.007 16.379 7.007zm150.381-113.196c25.234 0 45.764 20.529 45.764 45.764 0 7.145-1.653 14.125-4.808 20.439-3.028-1.34-6.373-2.089-9.892-2.089h-15.684c-7.377-8.659-17.85-14-29.301-14.821-3.953-.283-7.865-.024-11.685.771-4.571-7.416-10.797-13.561-18.053-18.049 5.937-19.011 23.428-32.015 43.659-32.015z"/></g></svg>