<?xml version="1.0"?>
<svg xmlns="http://www.w3.org/2000/svg" width="512" height="512" viewBox="0 0 512 512"><g><path d="M496,480h-8a8,8,0,0,0,0,16h8a8,8,0,0,0,0-16Z"/><path d="M352,352a8,8,0,0,0-8,8V465a8,8,0,0,0,16,0V360A8,8,0,0,0,352,352Z"/><path d="M477.66,450.34a8.015,8.015,0,0,0-11.32,0l-19.26,19.27L359.02,308.17A7.991,7.991,0,0,0,352,304H144a7.991,7.991,0,0,0-7.02,4.17L48.92,469.61,29.66,450.34a8,8,0,1,0-11.32,11.32L36.69,480H16a8,8,0,0,0,0,16H464a8,8,0,0,0,0-16h-4.69l18.35-18.34A8.015,8.015,0,0,0,477.66,450.34ZM61.48,480l87.27-160H338.52L251.25,480Zm208,0L352,328.71,434.52,480Z"/><path d="M81,232H185a40,40,0,0,0,4.685-79.728A60.023,60.023,0,0,0,84.876,136.157Q82.939,136,81,136a48,48,0,0,0,0,96Zm0-80a32.108,32.108,0,0,1,6.171.6,8.009,8.009,0,0,0,8.35-3.655,44.007,44.007,0,0,1,80.3,12.916,8.036,8.036,0,0,0,8.144,6.16c.342-.015.691-.022,1.033-.022a24,24,0,0,1,0,48H81a32,32,0,0,1,0-64Z"/><path d="M408,144a48,48,0,1,0-48-48A48.053,48.053,0,0,0,408,144Zm0-80a32,32,0,1,1-32,32A32.036,32.036,0,0,1,408,64Z"/><path d="M408,40a8,8,0,0,0,8-8V24a8,8,0,0,0-16,0v8A8,8,0,0,0,408,40Z"/><path d="M400,160v8a8,8,0,0,0,16,0v-8a8,8,0,0,0-16,0Z"/><path d="M464,96a8,8,0,0,0,8,8h8a8,8,0,0,0,0-16h-8A8,8,0,0,0,464,96Z"/><path d="M336,104h8a8,8,0,0,0,0-16h-8a8,8,0,0,0,0,16Z"/><path d="M453.255,58.745a7.974,7.974,0,0,0,5.657-2.343l5.657-5.657a8,8,0,1,0-11.314-11.314L447.6,45.088a8,8,0,0,0,5.657,13.657Z"/><path d="M357.088,135.6l-5.657,5.657a8,8,0,0,0,11.314,11.314l5.657-5.657A8,8,0,1,0,357.088,135.6Z"/><path d="M458.912,135.6A8,8,0,1,0,447.6,146.912l5.657,5.657a8,8,0,1,0,11.314-11.314Z"/><path d="M357.088,56.4A8,8,0,1,0,368.4,45.088l-5.657-5.657a8,8,0,1,0-11.314,11.314Z"/></g></svg>
