<?xml version="1.0" encoding="iso-8859-1"?>
<!-- Generator: Adobe Illustrator 19.0.0, SVG Export Plug-In . SVG Version: 6.00 Build 0)  -->
<svg version="1.1" id="Capa_1" xmlns="http://www.w3.org/2000/svg" xmlns:xlink="http://www.w3.org/1999/xlink" x="0px" y="0px"
	 viewBox="0 0 512 512" style="enable-background:new 0 0 512 512;" xml:space="preserve">
<g>
	<g>
		<path d="M417.416,275.974H274.253c-4.2,0-7.604,3.405-7.604,7.604v125.719c0,4.199,3.404,7.604,7.604,7.604h143.163
			c4.2,0,7.604-3.405,7.604-7.604V283.578C425.02,279.378,421.616,275.974,417.416,275.974z M409.812,401.692H281.857v-72.309
			h127.955V401.692z M409.812,314.176H281.857v-22.994h127.955V314.176z"/>
	</g>
</g>
<g>
	<g>
		<path d="M504.396,432.792h-50.183v-168.82l13.553,12.94c1.464,1.398,3.356,2.104,5.252,2.104c1.734,0,3.47-0.59,4.888-1.78
			l30.179-25.333c1.018-0.855,1.866-1.918,2.348-3.156c1.165-2.986,0.36-6.231-1.826-8.315l-52.366-49.871v-71.977
			c0-4.199-3.405-7.604-7.604-7.604c-4.199,0-7.604,3.405-7.604,7.604v57.494l-80.095-76.279V62.049h80.095v21.048
			c0,4.199,3.405,7.604,7.604,7.604c4.199,0,7.604-3.405,7.604-7.604V54.445c0-4.199-3.405-7.604-7.604-7.604h-95.303
			c-4.199,0-7.604,3.405-7.604,7.604v30.87l-69.424-66.116L261.175,5.143c-2.919-2.711-7.434-2.71-10.35,0l-15.2,14.121
			L3.393,240.431c-2.186,2.083-2.991,5.328-1.826,8.315c0.483,1.238,1.33,2.301,2.348,3.156l30.179,25.334
			c2.969,2.492,7.336,2.352,10.14-0.324l13.56-12.947v49.771c0,4.199,3.405,7.604,7.604,7.604s7.604-3.405,7.604-7.604v-64.291
			L256,74.73l183.005,174.722v183.341H274.253c-4.199,0-7.604,3.405-7.604,7.604v53.284h-21.291V283.579
			c0-4.199-3.405-7.604-7.604-7.604H112.035c-4.199,0-7.604,3.405-7.604,7.604v210.102h-8.545v-53.284
			c0-4.199-3.405-7.604-7.604-7.604H73.001v-83.57c0-4.199-3.405-7.604-7.604-7.604s-7.604,3.405-7.604,7.604v83.57H7.604
			c-4.199,0-7.604,3.405-7.604,7.604v60.889c0,4.199,3.405,7.604,7.604,7.604h80.678c0.007,0,0.013-0.001,0.019-0.001h23.732
			h125.719h36.48c0.006,0,0.013,0.001,0.019,0.001h230.145c4.199,0,7.604-3.405,7.604-7.604v-60.889
			C512,436.196,508.595,432.792,504.396,432.792z M80.678,493.68H65.397v0.001H15.208V448h65.47V493.68z M230.15,493.68H119.639
			V291.182H230.15V493.68z M261.251,58.717c-1.47-1.402-3.36-2.104-5.251-2.104s-3.781,0.702-5.251,2.104L38.656,261.21
			l-18.618-15.63L246.044,30.341l9.956-9.25l9.886,9.185L491.961,245.58l-18.619,15.63L261.251,58.717z M496.792,493.681h-50.183
			v-0.001H281.857V448h214.936V493.681z"/>
	</g>
</g>
<g>
	<g>
		<path d="M212.981,384.129h-18.25c-4.2,0-7.604,3.405-7.604,7.604c0,4.199,3.404,7.604,7.604,7.604h18.25
			c4.2,0,7.604-3.405,7.604-7.604C220.585,387.534,217.181,384.129,212.981,384.129z"/>
	</g>
</g>
<g>
	<g>
		<path d="M256.003,143.856c-23.479,0-42.58,19.101-42.58,42.581c0,23.479,19.101,42.58,42.58,42.58s42.58-19.101,42.58-42.58
			C298.583,162.958,279.482,143.856,256.003,143.856z M256.003,213.809c-15.093,0-27.372-12.279-27.372-27.372
			s12.279-27.373,27.372-27.373s27.372,12.279,27.372,27.373C283.375,201.53,271.096,213.809,256.003,213.809z"/>
	</g>
</g>
<g>
</g>
<g>
</g>
<g>
</g>
<g>
</g>
<g>
</g>
<g>
</g>
<g>
</g>
<g>
</g>
<g>
</g>
<g>
</g>
<g>
</g>
<g>
</g>
<g>
</g>
<g>
</g>
<g>
</g>
</svg>
