<?xml version="1.0" encoding="iso-8859-1"?>
<!-- Generator: Adobe Illustrator 19.0.0, SVG Export Plug-In . SVG Version: 6.00 Build 0)  -->
<svg version="1.1" id="Capa_1" xmlns="http://www.w3.org/2000/svg" xmlns:xlink="http://www.w3.org/1999/xlink" x="0px" y="0px"
	 viewBox="0 0 511.999 511.999" style="enable-background:new 0 0 511.999 511.999;" xml:space="preserve">
<g>
	<g>
		<path d="M423.215,65.637c-2.009-1.402-4.578-1.734-6.879-0.89L211.559,139.96c-3.888,1.428-5.882,5.737-4.454,9.626
			c1.428,3.888,5.736,5.883,9.626,4.454l194.691-71.509v21.755l-251.911,91.107v-20.338l24.289-8.922
			c3.888-1.428,5.882-5.738,4.454-9.626c-1.428-3.889-5.737-5.885-9.626-4.454l-29.203,10.727c-2.952,1.084-4.914,3.896-4.914,7.04
			v266.592c-4.463-1.828-9.827-3.015-15.999-3.485c-13.861-1.052-30.809,1.474-47.717,7.122
			c-16.908,5.648-31.972,13.812-42.417,22.987c-12.125,10.651-17.005,21.899-13.74,31.672c3.265,9.773,13.925,15.83,30.017,17.056
			c2.062,0.156,4.19,0.234,6.377,0.234c12.524,0,26.946-2.548,41.34-7.356c16.908-5.648,31.972-13.813,42.417-22.987
			c10.279-9.03,15.328-18.485,14.645-27.11c0.045-0.333,0.077-0.672,0.077-1.018V279.346l180.308-66.225
			c3.888-1.428,5.882-5.737,4.454-9.626c-1.428-3.889-5.738-5.884-9.626-4.454l-175.136,64.326v-52.023l251.911-91.107v50.606
			l-45.783,16.816c-3.888,1.428-5.882,5.737-4.454,9.626c1.115,3.035,3.985,4.916,7.041,4.916c0.858,0,1.732-0.148,2.585-0.462
			l40.611-14.917V213c0,4.143,3.358,7.5,7.5,7.5c4.142,0,7.5-3.357,7.5-7.5V71.787C426.422,69.336,425.225,67.04,423.215,65.637z
			 M97.62,490.417c-31.692,10.584-56.352,6.732-58.754-0.459c-2.403-7.193,14.99-25.093,46.683-35.681
			c13.993-4.674,26.614-6.533,36.555-6.533c12.573,0,20.857,2.976,22.199,6.992C146.704,461.929,129.312,479.829,97.62,490.417z"/>
	</g>
</g>
<g>
	<g>
		<path d="M426.421,350.042V247.432h0.001c0-4.143-3.358-7.5-7.5-7.5s-7.5,3.357-7.5,7.5v87.449
			c-4.341-1.691-9.498-2.794-15.394-3.243c-13.865-1.052-30.81,1.475-47.717,7.123c-16.908,5.647-31.972,13.812-42.417,22.986
			c-12.125,10.651-17.005,21.899-13.74,31.672s13.925,15.83,30.017,17.056c2.062,0.156,4.19,0.234,6.377,0.234
			c12.523,0,26.946-2.548,41.34-7.356c16.907-5.647,31.971-13.812,42.417-22.987C423.878,370.2,428.831,359.494,426.421,350.042z
			 M402.406,369.097c-8.979,7.888-22.214,15.001-37.27,20.03c-31.692,10.585-56.353,6.732-58.755-0.459
			c-0.879-2.633,1.058-8.312,9.412-15.65c8.979-7.887,22.214-15,37.271-20.029c12.886-4.305,25.624-6.588,36.499-6.588
			c1.831,0,3.609,0.064,5.327,0.195c9.989,0.76,14.993,3.573,16.532,6.048v3.168c0,0.482,0.05,0.953,0.137,1.41
			C410.578,360.214,407.871,364.297,402.406,369.097z"/>
	</g>
</g>
<g>
	<g>
		<path d="M477.794,31.715c-2.31-3.438-6.968-4.354-10.408-2.045l-20.23,13.587c-3.438,2.31-4.354,6.97-2.044,10.408
			c1.448,2.155,3.818,3.319,6.233,3.319c1.438,0,2.892-0.413,4.175-1.274l20.23-13.587
			C479.188,39.813,480.104,35.153,477.794,31.715z"/>
	</g>
</g>
<g>
	<g>
		<path d="M428.327,0.198c-4.035-0.941-8.067,1.565-9.009,5.599l-5.743,24.596c-0.942,4.033,1.564,8.066,5.598,9.009
			c0.574,0.134,1.147,0.198,1.712,0.198c3.406,0,6.489-2.337,7.297-5.797l5.743-24.596C434.867,5.174,432.36,1.14,428.327,0.198z"/>
	</g>
</g>
<g>
	<g>
		<path d="M482.033,80.839l-24.94-3.989c-4.086-0.648-7.936,2.132-8.59,6.222s2.131,7.937,6.221,8.591l24.94,3.989
			c0.401,0.063,0.8,0.095,1.194,0.095c3.62,0,6.807-2.628,7.396-6.316C488.907,85.34,486.122,81.493,482.033,80.839z"/>
	</g>
</g>
<g>
	<g>
		<path d="M115.07,145.971l-23.562-6.222c-4.005-1.062-8.108,1.332-9.166,5.336c-1.058,4.005,1.332,8.109,5.337,9.166l23.562,6.222
			c0.642,0.17,1.286,0.251,1.919,0.251c3.322,0,6.358-2.225,7.247-5.587C121.465,151.132,119.075,147.028,115.07,145.971z"/>
	</g>
</g>
<g>
	<g>
		<path d="M142.596,122.829l-13.472-21.364c-2.208-3.503-6.839-4.554-10.344-2.344c-3.504,2.209-4.553,6.841-2.343,10.344
			l13.471,21.364c1.426,2.262,3.861,3.501,6.352,3.501c1.367,0,2.751-0.374,3.993-1.157
			C143.757,130.964,144.806,126.332,142.596,122.829z"/>
	</g>
</g>
<g>
	<g>
		<path d="M126.823,184.035c-1.956-3.651-6.502-5.024-10.153-3.069l-22.263,11.928c-3.651,1.956-5.025,6.502-3.069,10.153
			c1.352,2.523,3.941,3.96,6.617,3.96c1.195,0,2.408-0.287,3.536-0.891l22.263-11.928
			C127.405,192.232,128.779,187.686,126.823,184.035z"/>
	</g>
</g>
<g>
</g>
<g>
</g>
<g>
</g>
<g>
</g>
<g>
</g>
<g>
</g>
<g>
</g>
<g>
</g>
<g>
</g>
<g>
</g>
<g>
</g>
<g>
</g>
<g>
</g>
<g>
</g>
<g>
</g>
</svg>
