<?xml version="1.0" encoding="iso-8859-1"?>
<!-- Generator: Adobe Illustrator 19.0.0, SVG Export Plug-In . SVG Version: 6.00 Build 0)  -->
<svg version="1.1" id="Capa_1" xmlns="http://www.w3.org/2000/svg" xmlns:xlink="http://www.w3.org/1999/xlink" x="0px" y="0px"
	 viewBox="0 0 512 512" style="enable-background:new 0 0 512 512;" xml:space="preserve">
<g>
	<g>
		<path d="M312.113,160.323h-7.123c23.315-15.77,38.671-42.456,38.671-72.661C343.661,39.325,304.336,0,256,0
			s-87.661,39.325-87.661,87.661c0,30.205,15.356,56.891,38.671,72.661h-7.123c-12.976,0-23.532,10.556-23.532,23.532v64.129
			c0,12.976,10.557,23.532,23.532,23.532h16.831l7.146,185.792c0.488,12.688,10.817,22.628,23.515,22.628h1.121V504.5
			c0,4.142,3.358,7.5,7.5,7.5c4.142,0,7.5-3.358,7.5-7.5v-24.564h1.121c12.698,0,23.026-9.939,23.515-22.628l7.146-185.792h16.831
			c12.976,0,23.532-10.556,23.532-23.532v-64.129C335.645,170.879,325.088,160.323,312.113,160.323z M183.725,95.161h88.302
			c4.142,0,7.5-3.358,7.5-7.5c0-4.142-3.358-7.5-7.5-7.5h-88.302C187.491,43.606,218.467,15,256,15s68.509,28.606,72.275,65.161
			h-24.178c-4.142,0-7.5,3.358-7.5,7.5c0,4.142,3.358,7.5,7.5,7.5h24.178c-3.766,36.555-34.742,65.161-72.275,65.161
			C218.467,160.322,187.491,131.716,183.725,95.161z M320.647,247.984h-0.002c0,4.705-3.828,8.532-8.532,8.532h-48.097
			c-4.142,0-7.5,3.358-7.5,7.5c0,4.142,3.358,7.5,7.5,7.5h16.255l-7.124,185.215c-0.177,4.601-3.921,8.204-8.525,8.204H247.38
			c-4.604,0-8.349-3.604-8.525-8.204l-7.124-185.215h0.223c4.142,0,7.5-3.358,7.5-7.5c0-4.142-3.358-7.5-7.5-7.5h-32.065
			c-4.705,0-8.532-3.828-8.532-8.532v-64.129c0-4.705,3.828-8.532,8.532-8.532h112.226c4.705,0,8.532,3.828,8.532,8.532V247.984z"/>
	</g>
</g>
<g>
	<g>
		<path d="M288.064,192.387h-64.129c-4.142,0-7.5,3.358-7.5,7.5c0,4.142,3.358,7.5,7.5,7.5h64.129c4.142,0,7.5-3.358,7.5-7.5
			C295.564,195.745,292.207,192.387,288.064,192.387z"/>
	</g>
</g>
<g>
	<g>
		<path d="M288.064,224.452h-64.129c-4.142,0-7.5,3.358-7.5,7.5c0,4.142,3.358,7.5,7.5,7.5h64.129c4.142,0,7.5-3.358,7.5-7.5
			C295.564,227.81,292.207,224.452,288.064,224.452z"/>
	</g>
</g>
<g>
</g>
<g>
</g>
<g>
</g>
<g>
</g>
<g>
</g>
<g>
</g>
<g>
</g>
<g>
</g>
<g>
</g>
<g>
</g>
<g>
</g>
<g>
</g>
<g>
</g>
<g>
</g>
<g>
</g>
</svg>
