<?xml version="1.0" encoding="iso-8859-1"?>
<!-- Generator: Adobe Illustrator 19.0.0, SVG Export Plug-In . SVG Version: 6.00 Build 0)  -->
<svg version="1.1" id="Capa_1" xmlns="http://www.w3.org/2000/svg" xmlns:xlink="http://www.w3.org/1999/xlink" x="0px" y="0px"
	 viewBox="0 0 512 512" style="enable-background:new 0 0 512 512;" xml:space="preserve">
<g>
	<g>
		<path d="M477.213,34.809C454.767,12.361,424.923,0,393.179,0c-31.744,0-61.588,12.361-84.034,34.809
			c-22.447,22.446-34.809,52.29-34.809,84.035c0,2.525,0.087,5.036,0.243,7.533L71.496,344.128
			c-21.713,23.282-24.433,57.257-8.51,83.198L4.533,485.779c-5.998,5.998-5.998,15.723,0,21.722C7.532,510.5,11.463,512,15.393,512
			c3.93,0,7.862-1.5,10.86-4.499l58.16-58.159c10.838,7.061,23.463,10.961,36.674,11.152c0.342,0.005,0.684,0.007,1.026,0.007
			c17.724,0,34.541-6.676,47.458-18.864l216.393-204.175c2.393,0.142,4.797,0.223,7.214,0.223c31.744,0,61.588-12.361,84.035-34.808
			C523.55,156.54,523.55,81.146,477.213,34.809z M148.491,419.294c-15.239,14.379-38.78,14.039-53.598-0.778
			c-14.73-14.73-15.138-38.201-0.931-53.435l188.715-202.348c5.899,14.86,14.822,28.5,26.468,40.145
			c11.74,11.741,25.506,20.716,40.508,26.612L148.491,419.294z M455.492,181.157c-16.645,16.644-38.774,25.81-62.313,25.81
			c-23.538,0-45.668-9.167-62.313-25.81c-16.645-16.645-25.811-38.774-25.811-62.313c0-23.539,9.167-45.668,25.811-62.313
			c16.645-16.645,38.774-25.811,62.313-25.811c23.539,0,45.669,9.167,62.313,25.811C489.851,90.89,489.851,146.797,455.492,181.157z
			"/>
	</g>
</g>
<g>
	<g>
		<path d="M283.496,228.521c-5.996-5.998-15.722-5.998-21.721,0l-48.172,48.172c-5.998,5.998-5.998,15.723,0,21.722
			c2.999,2.999,6.93,4.499,10.86,4.499c3.93,0,7.862-1.499,10.86-4.499l48.172-48.172
			C289.494,244.244,289.494,234.519,283.496,228.521z"/>
	</g>
</g>
<g>
</g>
<g>
</g>
<g>
</g>
<g>
</g>
<g>
</g>
<g>
</g>
<g>
</g>
<g>
</g>
<g>
</g>
<g>
</g>
<g>
</g>
<g>
</g>
<g>
</g>
<g>
</g>
<g>
</g>
</svg>
