<svg id="Capa_1" enable-background="new 0 0 512.418 512.418" height="512" viewBox="0 0 512.418 512.418" width="512" xmlns="http://www.w3.org/2000/svg"><g><path d="m509.3 97.152-20.81-41.446c-2.704-5.388-8.129-8.734-14.157-8.734h-189.78v-31.494c0-8.535-6.943-15.478-15.477-15.478h-42.861c-8.534 0-15.478 6.943-15.478 15.478v31.494h-53.983c-4.143 0-7.5 3.358-7.5 7.5s3.357 7.5 7.5 7.5h317.579c.32 0 .607.177.752.464l20.811 41.447c.119.237.119.519.001.756l-20.813 41.448c-.144.286-.431.463-.751.463h-435.407c-.314 0-.602-.173-.746-.452l-21.645-41.449c-.127-.243-.127-.534.001-.778l21.643-41.446c.146-.28.433-.453.747-.453h85.865c4.143 0 7.5-3.358 7.5-7.5s-3.357-7.5-7.5-7.5h-85.865c-5.92 0-11.301 3.26-14.043 8.509l-21.642 41.446c-2.399 4.592-2.398 10.076-.001 14.667l21.645 41.449c2.741 5.248 8.122 8.507 14.042 8.507h171.811v42.538l-115.59 10.704c-3.345.31-6.401 2.197-8.174 5.045l-23.146 37.146c-2.642 4.239-2.048 9.694 1.443 13.268l30.598 31.296c2.036 2.082 4.857 3.249 7.747 3.249.438 0 .88-.027 1.32-.082l105.8-13.243v48.016l-106.942-5.784c-.001 0-.001 0-.001 0-5.556-.299-10.308 3.939-10.695 9.445l-3.293 46.886c-.385 5.505 3.774 10.369 9.271 10.844l111.66 9.649v94.391c0 4.142 3.357 7.5 7.5 7.5s7.5-3.358 7.5-7.5v-93.095l43.816 3.786v25.233c0 4.142 3.357 7.5 7.5 7.5s7.5-3.358 7.5-7.5v-23.937l82.724 7.148c.287.025.573.037.86.037 2.853 0 5.627-1.215 7.554-3.344l23.75-26.23c3.154-3.485 3.518-8.638.88-12.533l-19.851-29.293c-1.772-2.615-4.714-4.278-7.87-4.45l-88.047-4.762v-61.248l150.777-18.872c5.817-.728 10.034-6.062 9.399-11.891l-6.291-57.792c-.635-5.829-5.911-10.133-11.737-9.59l-80.089 7.417c-4.125.382-7.158 4.035-6.776 8.16s4.035 7.15 8.159 6.777l75.979-7.037 5.397 49.584-324.232 40.583-26.837-27.449 20.303-32.583 120.399-11.15h.002l97.154-8.997c4.125-.382 7.158-4.035 6.776-8.16s-4.032-7.157-8.159-6.777l-30.223 2.799v-35.702h189.779c6.028 0 11.453-3.346 14.156-8.733l20.813-41.448c2.235-4.451 2.235-9.765-.001-14.217zm-283.563-81.674c0-.264.214-.478.478-.478h42.861c.264 0 .478.214.478.478v31.494h-43.816v-31.494zm160.039 371.782-19.597 21.645-88.358-7.635c-.001 0-.002 0-.003 0l-172.717-14.925 2.627-37.405 261.669 14.151zm-116.223-44.592-43.816-2.37v-50.705l43.816-5.484zm0-144.027-43.816 4.058v-41.149h43.816z"/><path d="m49.893 104.261c0 12.292 10 22.292 22.292 22.292s22.292-10 22.292-22.292-10-22.292-22.292-22.292-22.292 10-22.292 22.292zm29.584 0c0 4.021-3.271 7.292-7.292 7.292s-7.292-3.271-7.292-7.292 3.271-7.292 7.292-7.292 7.292 3.271 7.292 7.292z"/><path d="m460.397 104.261c0-12.292-10-22.292-22.292-22.292s-22.292 10-22.292 22.292 10 22.292 22.292 22.292 22.292-10 22.292-22.292zm-29.584 0c0-4.021 3.271-7.292 7.292-7.292s7.292 3.271 7.292 7.292-3.271 7.292-7.292 7.292-7.292-3.271-7.292-7.292z"/><path d="m277.053 465.306c-4.143 0-7.5 3.358-7.5 7.5v32.113c0 4.142 3.357 7.5 7.5 7.5s7.5-3.358 7.5-7.5v-32.113c0-4.142-3.357-7.5-7.5-7.5z"/></g></svg>